<?xml version="1.0" standalone="no"?>
<!DOCTYPE svg PUBLIC "-//W3C//DTD SVG 20010904//EN"
 "http://www.w3.org/TR/2001/REC-SVG-20010904/DTD/svg10.dtd">
<svg version="1.0" xmlns="http://www.w3.org/2000/svg"
 width="225.000000pt" height="225.000000pt" viewBox="0 0 225.000000 225.000000"
 preserveAspectRatio="xMidYMid meet">
<metadata>
Created by potrace 1.10, written by Peter Selinger 2001-2011
</metadata>
<g transform="translate(0.000000,225.000000) scale(0.100000,-0.100000)"
fill="#000000" stroke="none">
<path d="M476 1934 c-26 -25 -19 -51 22 -80 102 -75 117 -100 157 -263 14 -57
35 -121 46 -143 26 -50 92 -117 151 -152 63 -37 102 -33 139 14 35 45 46 80
25 80 -32 0 -85 60 -103 116 -12 39 -21 54 -32 52 -11 -3 -15 -13 -13 -36 2
-23 -1 -32 -11 -32 -16 0 -47 68 -47 103 0 67 44 138 99 158 42 17 121 -10
121 -41 0 -4 -16 -27 -35 -50 -38 -46 -43 -70 -19 -94 27 -28 52 -18 94 37 95
127 55 204 -113 214 -74 5 -85 3 -117 -19 -45 -30 -73 -88 -78 -163 -8 -111
-30 -92 -56 45 -21 111 -46 159 -113 220 -57 53 -90 62 -117 34z m59 -23 c-3
-5 5 -11 17 -13 12 -2 23 -9 26 -16 2 -7 -2 -10 -12 -6 -12 5 -15 2 -10 -10 3
-9 10 -13 16 -10 13 9 55 -33 62 -62 4 -14 10 -22 15 -19 8 5 26 -43 18 -51
-3 -4 -42 39 -39 44 6 7 1 22 -7 18 -14 -9 -32 20 -24 40 6 16 4 17 -9 6 -13
-10 -19 -6 -42 28 -14 22 -32 40 -39 40 -8 0 -7 4 3 10 19 12 33 13 25 1z
m528 -158 c-5 -12 -2 -15 8 -11 23 9 19 -40 -6 -68 -15 -17 -21 -32 -18 -51 5
-28 5 -28 -11 -7 -14 19 -14 24 3 57 10 20 21 33 25 30 3 -4 6 -1 6 5 0 6 -9
14 -20 17 -11 4 -18 11 -15 16 4 5 0 9 -7 10 -7 0 -4 4 7 9 30 13 35 12 28 -7z
m-340 -210 c-6 -16 -5 -16 10 -4 9 7 17 10 17 6 0 -4 7 -2 15 5 13 11 14 10
10 -3 -5 -10 -1 -15 11 -14 13 2 18 -5 19 -23 0 -19 5 -25 25 -26 13 -1 26 -7
28 -13 2 -6 8 -11 13 -11 4 0 5 7 2 17 -5 12 -3 14 7 8 10 -6 12 -4 7 9 -4 10
-3 15 4 11 5 -4 7 -15 4 -25 -3 -11 0 -20 10 -24 8 -3 15 -15 15 -26 0 -13 4
-18 11 -14 7 4 7 -2 -1 -17 -10 -20 -10 -22 1 -11 18 17 34 15 20 -2 -10 -12
-8 -13 8 -9 12 3 21 1 21 -5 0 -25 -25 -63 -44 -66 -30 -6 -65 -3 -61 5 3 3
-5 15 -17 25 -12 11 -18 14 -15 7 4 -6 3 -14 -1 -17 -5 -3 -15 6 -22 19 -11
20 -11 27 0 40 18 22 24 11 10 -17 l-13 -23 21 20 c17 18 18 22 5 35 -13 13
-16 13 -27 -2 -7 -10 -16 -15 -20 -11 -4 4 -4 -1 0 -12 5 -13 -1 -10 -18 10
-19 22 -23 33 -16 42 6 7 15 10 21 6 6 -3 7 -1 3 6 -6 9 -11 9 -21 1 -10 -8
-17 -6 -27 9 -8 12 -17 19 -19 16 -3 -2 -5 4 -6 13 0 9 -3 28 -7 41 -6 25 -1
41 14 41 5 0 6 -8 3 -17z"/>
<path d="M746 1878 c-20 -33 -29 -84 -21 -126 l7 -37 13 39 c8 22 23 52 34 67
25 34 27 65 5 73 -22 8 -22 8 -38 -16z"/>
<path d="M1465 1761 c-125 -31 -279 -168 -377 -336 -19 -33 -50 -85 -68 -116
-43 -75 -66 -82 -148 -51 -44 17 -67 21 -74 14 -7 -7 -6 -10 3 -9 26 1 79 -25
79 -40 0 -8 5 -11 10 -8 6 4 7 11 4 17 -5 8 -1 9 10 5 10 -4 20 -7 22 -7 3 0
3 -4 0 -8 -9 -15 33 -6 52 11 12 11 26 15 37 11 14 -6 16 -3 11 14 -5 15 -2
22 15 27 15 5 18 10 9 15 -9 5 -5 18 13 48 14 22 24 42 21 45 -2 2 7 12 21 21
16 10 24 23 21 32 -3 8 -2 14 2 14 4 0 16 13 27 30 22 32 48 49 38 24 -3 -7
-8 -14 -12 -14 -4 0 -7 -10 -7 -22 1 -17 -4 -22 -16 -20 -15 2 -16 -1 -8 -23
13 -35 13 -38 -5 -31 -18 7 -18 7 0 -37 8 -20 23 -38 32 -41 26 -7 111 -4 91
3 -15 5 -15 8 -2 26 8 11 18 20 22 20 4 0 6 3 5 7 -5 15 28 -5 38 -23 6 -13 6
-25 -1 -38 -5 -11 -10 -30 -11 -43 0 -22 -1 -22 -9 -3 -7 15 -9 9 -9 -25 0
-29 2 -40 8 -31 6 9 11 10 15 2 4 -6 4 -11 0 -11 -3 0 -1 -7 7 -16 7 -8 21
-13 31 -11 10 3 16 1 12 -4 -3 -5 1 -18 9 -30 14 -20 15 -19 22 20 4 26 20 56
46 85 43 49 46 58 24 76 -13 11 -21 8 -51 -21 -19 -18 -40 -50 -46 -71 -17
-56 -38 -49 -38 12 0 59 19 110 54 145 15 15 25 35 23 47 -2 25 28 37 46 19 8
-8 5 -11 -11 -11 -12 0 -22 -4 -22 -9 0 -5 21 -3 47 5 110 33 191 -34 153
-126 -24 -57 8 -101 61 -85 43 14 64 127 35 183 -41 78 -153 120 -257 97 -49
-11 -138 -68 -201 -130 -51 -49 -61 -54 -79 -45 -30 17 -33 34 -11 82 70 156
235 224 442 183 126 -26 149 -25 172 6 16 22 17 29 7 52 -32 71 -220 125 -334
98z m132 -21 c34 0 52 -4 48 -10 -3 -5 0 -10 7 -10 10 0 10 -2 -1 -9 -10 -7
-7 -9 12 -8 14 1 23 5 20 10 -8 13 6 8 42 -15 25 -17 35 -30 35 -49 0 -36 -17
-40 -102 -24 -66 12 -165 20 -178 15 -3 -2 -25 -4 -50 -7 -85 -7 -90 -8 -90
-15 0 -3 3 -8 8 -11 4 -2 0 -2 -8 1 -31 10 -53 7 -58 -8 -5 -13 -3 -13 11 -1
28 22 19 5 -12 -27 -22 -21 -33 -26 -41 -18 -8 8 -10 7 -5 -5 4 -10 0 -19 -9
-22 -8 -3 -17 1 -20 10 -7 18 2 36 14 28 5 -3 11 4 15 15 7 20 25 28 25 10 0
-5 -4 -10 -10 -10 -5 0 -10 -4 -10 -10 0 -16 17 -12 24 6 4 9 1 24 -6 32 -9
11 -9 14 -1 9 7 -5 16 1 22 12 15 27 73 61 107 62 16 0 23 3 17 6 -22 8 -14
21 10 16 18 -4 19 -3 7 6 -8 6 -10 11 -5 12 44 4 56 7 62 13 5 4 21 5 37 2 16
-3 53 -6 83 -6z m67 -291 c20 -12 36 -27 36 -35 0 -8 5 -14 10 -14 7 0 7 -7
-1 -21 -8 -17 -8 -20 1 -14 14 8 7 -21 -15 -67 -7 -15 -9 -29 -4 -32 5 -2 4
-3 -3 -1 -7 1 -12 8 -10 14 1 6 -2 11 -8 11 -6 0 -8 18 -6 42 2 23 -2 56 -10
73 -7 18 -10 35 -7 39 4 3 -1 6 -10 6 -9 0 -19 5 -22 10 -10 16 11 11 49 -11z
m-284 -29 c0 -10 -9 -21 -19 -25 -14 -4 -18 -12 -14 -23 6 -15 3 -14 -15 2
-26 23 -29 38 -5 29 12 -5 14 -3 8 7 -6 9 -4 11 4 6 8 -5 14 0 18 13 6 24 23
18 23 -9z"/>
<path d="M532 1561 c-25 -15 -8 -44 32 -58 22 -7 54 -24 72 -38 31 -24 32 -24
26 -3 -6 25 -88 108 -105 108 -7 0 -18 -4 -25 -9z"/>
<path d="M945 1520 c-9 -15 22 -66 54 -89 38 -27 47 -27 29 2 -8 12 -20 39
-27 60 -12 36 -41 51 -56 27z"/>
<path d="M1261 1494 c-50 -56 -74 -133 -26 -81 14 15 44 36 66 48 31 15 40 25
37 42 -5 37 -41 33 -77 -9z"/>
<path d="M490 1437 c-14 -7 -31 -25 -38 -40 -12 -24 -11 -32 3 -53 23 -36 40
-39 99 -20 130 40 199 -1 201 -121 0 -35 -2 -63 -6 -63 -4 0 -9 -10 -12 -22
l-6 -23 19 23 c10 12 23 22 30 22 7 0 5 6 -4 16 -18 18 -21 34 -5 34 5 0 8 -4
4 -9 -3 -5 -1 -12 5 -16 7 -4 9 14 6 55 -4 46 -2 62 9 66 18 7 -89 109 -147
142 -46 25 -118 29 -158 9z m85 -7 c3 -5 15 -10 26 -10 10 0 19 -5 19 -11 0
-6 8 -8 19 -4 11 3 22 1 26 -5 6 -10 -4 -13 -35 -11 -10 0 -11 -1 -2 -5 22
-10 12 -24 -18 -24 -16 0 -50 -5 -75 -12 -41 -11 -47 -10 -63 7 -16 18 -16 18
2 4 18 -13 19 -12 13 4 -4 10 -2 17 6 18 9 0 9 2 0 6 -16 6 9 33 31 33 8 0 18
5 21 10 3 6 10 10 15 10 5 0 12 -4 15 -10z"/>
<path d="M690 1122 c-30 -30 -30 -32 -30 -137 0 -122 17 -204 61 -284 35 -65
35 -71 8 -71 -40 0 -149 -60 -170 -93 -28 -47 -24 -74 19 -117 76 -76 240
-114 487 -114 239 0 396 35 481 108 32 27 38 39 38 71 0 32 -7 44 -43 76 -25
23 -68 46 -106 59 -59 20 -63 23 -52 41 8 13 23 19 50 19 111 0 217 106 217
218 0 82 -62 132 -143 117 -34 -7 -34 -6 -40 35 -5 43 -30 90 -47 90 -13 0
-13 -26 0 -50 35 -65 -238 -126 -461 -102 -118 13 -203 35 -239 62 l-24 18 19
36 c25 47 13 56 -25 18z m54 -126 c140 -63 515 -62 649 3 l37 18 0 -58 c0
-136 -56 -274 -146 -359 -73 -69 -130 -94 -219 -94 -155 -2 -287 112 -343 294
-22 71 -40 225 -26 218 5 -2 27 -12 48 -22z m830 -27 c15 -7 30 -26 36 -45 21
-62 -40 -156 -125 -195 -22 -10 -48 -19 -58 -19 -16 0 -16 2 -2 30 20 38 45
145 45 192 0 26 5 38 18 41 32 9 61 7 86 -4z m-792 -412 c-46 -49 -18 -95 76
-120 65 -18 173 -33 132 -18 -14 5 -50 14 -80 20 -101 21 -152 73 -100 101 16
9 26 7 49 -9 117 -84 271 -88 393 -10 39 25 50 28 67 19 28 -14 27 -45 -1 -65
-24 -16 -96 -39 -162 -50 -21 -3 -36 -8 -33 -11 8 -8 151 18 182 33 69 35 82
67 42 107 -19 19 -21 27 -12 39 10 14 18 13 76 -6 80 -27 116 -50 131 -83 10
-21 8 -28 -16 -53 -124 -129 -650 -150 -879 -34 -106 53 -82 114 64 168 55 20
66 21 78 9 13 -12 12 -17 -7 -37z"/>
<path d="M1065 885 c-86 -30 -167 -157 -150 -234 8 -36 25 -51 25 -22 0 36 58
88 145 131 78 38 125 79 125 109 0 10 -62 31 -90 31 -8 -1 -33 -7 -55 -15z
m48 -30 c11 -7 26 -11 34 -8 11 4 14 2 11 -8 -3 -8 -12 -13 -21 -13 -9 1 -15
-2 -12 -6 3 -5 -4 -11 -15 -15 -11 -4 -18 -10 -15 -14 2 -5 -11 -7 -30 -5 -27
2 -32 -1 -28 -13 5 -12 1 -14 -16 -8 -15 5 -23 1 -28 -12 -10 -28 -43 -45 -43
-22 0 5 4 8 9 5 8 -5 25 29 22 47 -1 4 8 7 19 7 11 0 20 5 20 11 0 5 -6 7 -12
4 -7 -4 -3 2 9 13 12 11 19 23 15 27 -4 5 -2 5 5 2 6 -4 13 -1 16 5 3 10 8 9
22 -2 17 -14 18 -13 12 3 -8 20 1 21 26 2z"/>
<path d="M1221 853 c-1 -36 -59 -92 -135 -130 -115 -57 -164 -117 -117 -143
99 -52 272 83 270 211 0 49 -17 103 -18 62z m-36 -131 c-2 -9 -4 -21 -4 -26
-1 -4 -8 -5 -17 -2 -9 3 -12 2 -9 -5 4 -5 -2 -18 -14 -28 -11 -10 -18 -21 -15
-24 6 -6 -38 -2 -73 6 -13 3 -26 1 -29 -5 -5 -7 -2 -8 7 -3 11 7 12 6 2 -7 -7
-8 -10 -17 -7 -21 3 -3 -1 -4 -10 -3 -9 1 -22 8 -29 16 -7 8 -7 10 -1 7 14 -8
37 17 26 29 -4 5 -3 6 2 2 5 -4 22 2 37 13 16 11 29 15 29 9 0 -6 5 -8 10 -5
6 4 8 10 5 15 -3 5 6 12 20 16 14 3 22 11 18 17 -3 5 -1 7 5 4 15 -10 43 3 35
16 -3 5 -1 7 5 4 5 -4 9 -15 7 -25z m-111 -115 c-18 -10 -40 6 -30 22 5 7 13
7 26 -1 17 -11 18 -14 4 -21z"/>
</g>
</svg>
